Coordinates
version=1
nRows=19
nColumns=24
inDegrees=yes

Units are S.I. units (second, meters, Newtons, ...)
Angles are in degrees.

endheader
time	pelvis_tilt	pelvis_list	pelvis_rotation	pelvis_tx	pelvis_ty	pelvis_tz	hip_flexion_r	hip_adduction_r	hip_rotation_r	knee_angle_r	ankle_angle_r	subtalar_angle_r	mtp_angle_r	hip_flexion_l	hip_adduction_l	hip_rotation_l	knee_angle_l	ankle_angle_l	subtalar_angle_l	mtp_angle_l	lumbar_extension	lumbar_bending	lumbar_rotation
      1.40416667	     -3.16561359	      0.51505459	    -13.31221936	      0.99474474	      0.98210679	      0.27128840	    -15.50104390	     -0.95626997	      4.95686403	     -9.49190013	     11.24795389	      1.40930676	     15.31945848	     25.32975272	     -4.02499276	    -13.82579937	      6.95806097	      5.02993078	     -8.75040467	      8.92829377	     -0.56015337	      0.14044845	     12.32851460
      1.40833333	     -3.13046038	      0.60264412	    -13.39624927	      1.00089945	      0.98160813	      0.27101153	    -15.69833219	     -1.17355019	      4.94179198	     -9.81218968	     11.05188011	      1.43012342	     15.41020900	     25.29396075	     -3.93945148	    -13.84469309	      6.65301448	      5.20929119	     -8.95143344	      8.91879608	     -0.51456867	     -0.01675029	     12.41580138
      1.41250000	     -3.04396434	      0.69954376	    -13.47850018	      1.00704638	      0.98119877	      0.27069769	    -15.91989937	     -1.41611578	      4.87490965	    -10.18330513	     10.86296742	      1.53912681	     15.79152565	     25.20461665	     -3.82837143	    -13.81012704	      6.30801178	      5.25938537	     -9.23301462	      8.88638715	     -0.57381337	     -0.18534124	     12.68179842
      1.41666667	     -3.02538311	      0.81439465	    -13.56515944	      1.01326683	      0.98073417	      0.27041764	    -16.06259639	     -1.65401652	      4.87846021	    -10.56417789	     10.62026273	      1.49323004	     15.87493849	     25.19575860	     -3.72060414	    -13.80727963	      5.89026834	      5.37720940	     -9.40535837	      8.88366861	     -0.50709641	     -0.36447605	     12.68722527
      1.42083333	     -2.96045437	      0.93623110	    -13.62820218	      1.01950782	      0.98034165	      0.27008884	    -16.25093967	     -1.90668867	      4.83672622	    -10.93757156	     10.28870963	      1.38652912	     21.04589037	     25.12907226	     -3.57928239	    -13.68759324	      5.46551640	      5.38368501	     -9.72634034	      8.84913631	     -0.52622045	     -0.56120907	     12.74162965
      1.42500000	     -2.91724453	      1.08284965	    -13.70710958	      1.02584692	      0.97994996	      0.26977244	    -16.39216192	     -2.18327146	      4.79262571	    -11.36275066	     10.00694235	      1.36364895	     21.05711065	     25.09368300	     -3.42366636	    -13.67755611	      4.98671034	      5.39778150	     -9.89415236	      8.85153176	     -0.45927424	     -0.78017303	     12.82055741
      1.42916667	     -2.84752700	      1.25297990	    -13.78791841	      1.03224428	      0.97961396	      0.26943995	    -16.54036823	     -2.49488715	      4.71524520	    -11.81819278	      9.73558411	      1.43320337	     21.15636469	     25.01074475	     -3.23104325	    -13.57316080	      4.52743632	      5.29183789	    -10.19502787	      8.87196259	     -0.44635685	     -1.03069186	     13.06177751
      1.43333333	     -2.78172322	      1.43010007	    -13.85398462	      1.03865924	      0.97929537	      0.26908810	    -16.67604660	     -2.80406102	      4.64120936	    -12.28640909	      9.41445526	      1.42766059	     21.31433109	     24.93501599	     -3.02260749	    -13.45585589	      4.04802604	      5.13121959	    -10.51949523	      8.90969602	     -0.41048806	     -1.28890973	     13.17363284
      1.43750000	     -2.72304941	      1.62567010	    -13.92330824	      1.04514207	      0.97899088	      0.26872388	    -16.78242761	     -3.13271543	      4.55711304	    -12.78953590	      9.07292133	      1.41984873	     21.56103246	     24.86543203	     -2.79510235	    -13.31772135	      3.55563509	      4.93766489	    -10.85369439	      8.97443080	     -0.35811709	     -1.56272209	     13.30429711
      1.44166667	     -2.65461804	      1.83270983	    -13.99677934	      1.05162686	      0.97872281	      0.26834661	    -16.86686707	     -3.47560692	      4.46603369	    -13.34657479	      8.72218474	      1.40532820	     21.97935080	     24.77239156	     -2.54722339	    -13.12986329	      3.08567286	      4.68823820	    -11.26422064	      9.08274618	     -0.31536974	     -1.85402676	     13.42563739
      1.44583333	     -2.60993170	      2.05601771	    -14.03319816	      1.05818024	      0.97845124	      0.26794335	    -16.94089370	     -3.81314697	      4.38074039	    -13.87185402	      8.29317824	      1.32333834	     22.08238429	     24.75616500	     -2.28534033	    -13.05929298	      2.51176132	      4.45048277	    -11.38644398	      9.11065963	     -0.22505962	     -2.16710104	     13.45758654
      1.45000000	     -2.54188966	      2.28582546	    -14.09043306	      1.06472720	      0.97823862	      0.26750588	    -16.98485366	     -4.17783689	      4.23996833	    -14.48363261	      7.84347239	      1.26234379	     26.48419092	     24.67572270	     -2.00212332	    -12.87503790	      2.01901617	      4.04002725	    -11.81923337	     10.36147086	     -0.17045960	     -2.47214697	     13.57626785
      1.45416667	     -2.48640488	      2.52960134	    -14.12422951	      1.07132924	      0.97803912	      0.26705895	    -17.01215253	     -4.53948895	      4.11218097	    -15.10811519	      7.36529464	      1.16822326	     26.49179892	     24.64960710	     -1.70898700	    -12.81235412	      1.43931689	      3.73698910	    -11.94773669	     10.36547740	     -0.07743265	     -2.79378644	     13.62037918
      1.45833333	     -2.43494856	      2.80892275	    -14.16675951	      1.07796866	      0.97785094	      0.26657448	    -16.98526728	     -4.94827819	      3.94464935	    -15.81314038	      6.92557771	      1.25941156	     26.60226858	     24.57747164	     -1.36298080	    -12.58075297	      0.98551318	      3.18493608	    -12.43787508	     10.40712722	      0.01259042	     -3.15557967	     13.77699747
      1.46250000	     -2.38767213	      3.08500291	    -14.18333710	      1.08461271	      0.97769812	      0.26605937	    -16.94751673	     -5.33922415	      3.78350570	    -16.52899120	      6.41361658	      1.22959292	     26.78887395	     24.53854132	     -1.01680227	    -12.38615851	      0.46913515	      2.69547298	    -12.79559034	     10.46675572	      0.11372771	     -3.51533819	     13.84437299
      1.46666667	     -2.31879261	      3.35756192	    -14.17647778	      1.09125969	      0.97760589	      0.26552979	    -16.92325838	     -5.71952804	      3.61634538	    -17.26416684	      5.83811083	      1.11073565	     26.83668046	     24.52438769	     -0.67387273	    -12.31049895	     -0.14919072	      2.33408049	    -12.88640130	     10.48059976	      0.20813240	     -3.87815286	     13.86600920
      1.47083333	     -2.28713796	      3.68354269	    -14.18121794	      1.09796600	      0.97747867	      0.26494781	    -16.79518130	     -6.16516975	      3.39076679	    -18.10042064	      5.31317609	      1.21319670	     27.29006559	     24.48604894	     -0.26219504	    -12.01609821	     -0.61475447	      1.75904855	    -13.43077527	     10.61163241	      0.33643434	     -4.28902366	     13.98060079
      1.47500000	     -2.24054776	      3.99040375	    -14.17516326	      1.10466161	      0.97744515	      0.26439373	    -16.69205019	     -6.57587052	      3.25029878	    -18.91222885	      4.66299805	      1.11451233	     27.39163573	     24.49591541	      0.11102734	    -11.98036791	     -1.22560480	      1.31497890	    -13.47857710	     10.63681705	      0.44876042	     -4.68587857	     13.98460291
      1.47916667	     -2.19889386	      4.29974149	    -14.13517186	      1.11132122	      0.97739637	      0.26373250	    -16.53001459	     -6.99354502	      2.99800194	    -19.82628263	      4.01810341	      1.08270978	     31.90895532	     24.50259422	      0.51178938	    -11.79212487	     -1.80106330	      0.79114459	    -13.81631607	     11.79795805	      0.57290042	     -5.07094854	     13.96593573
